# xmcd CD database file
#
# Track frame offsets:
#	150
#	24045
#	44675
#	67422
#	97127
#	118877
#	140195
#	160257
#	184740
#	204409
#	236237
#	261995
#	278842
#	305375
#
# Disc length: 4396 seconds
#
# Revision: 0
# Processed by: cddbd v1.5.1PL0 Copyright (c) Steve Scherf et al.
# Submitted via: CDex 1.51
#
DISCID=dc112a0e
DTITLE=The Bluesville Bombers - No Problem With The Blues
DYEAR=1997
DGENRE=Blues
TTITLE0=It Ain't Right
TTITLE1=Blow Wind Blow
TTITLE2=Shake Your Hips
TTITLE3=The Sky Is Crying
TTITLE4=Rocket 88
TTITLE5=I Can't  Be Satisfied
TTITLE6=Tune In The Blues
TTITLE7=Ah'w Baby
TTITLE8=Madison Blues
TTITLE9=Blue And Lonesome
TTITLE10=You Got Me Dizzy
TTITLE11=Mellow Down Easy
TTITLE12=Louisiana Blues
TTITLE13=B.B. Wiggly Toes
EXTD=YEAR: 1997
EXTT0=
EXTT1=
EXTT2=
EXTT3=
EXTT4=
EXTT5=
EXTT6=
EXTT7=
EXTT8=
EXTT9=
EXTT10=
EXTT11=
EXTT12=
EXTT13=
PLAYORDER=
